<?xml version="1.0" encoding="UTF-8" standalone="no"?>
<!-- Created with Inkscape (http://www.inkscape.org/) -->

<svg
   width="140mm"
   height="100mm"
   viewBox="0 0 140 100"
   version="1.1"
   id="svg1"
   inkscape:version="1.3.2 (091e20e, 2023-11-25, custom)"
   sodipodi:docname="Panda.svg"
   xmlns:inkscape="http://www.inkscape.org/namespaces/inkscape"
   xmlns:sodipodi="http://sodipodi.sourceforge.net/DTD/sodipodi-0.dtd"
   xmlns="http://www.w3.org/2000/svg"
   xmlns:svg="http://www.w3.org/2000/svg">
  <sodipodi:namedview
     id="namedview1"
     pagecolor="#ffffff"
     bordercolor="#000000"
     borderopacity="0.25"
     inkscape:showpageshadow="2"
     inkscape:pageopacity="0.0"
     inkscape:pagecheckerboard="0"
     inkscape:deskcolor="#d1d1d1"
     inkscape:document-units="mm"
     inkscape:zoom="1.5037598"
     inkscape:cx="184.53745"
     inkscape:cy="266.99743"
     inkscape:window-width="1920"
     inkscape:window-height="1017"
     inkscape:window-x="-8"
     inkscape:window-y="-8"
     inkscape:window-maximized="1"
     inkscape:current-layer="layer1" />
  <defs
     id="defs1" />
  <g
     inkscape:label="图层 1"
     inkscape:groupmode="layer"
     id="layer1">
    <path
       style="fill:#00a4ff;fill-opacity:1;stroke-width:17.465"
       id="path56"
       d="m 17.234874,27.929997 c 1.996702,0.162807 4.083643,0.455496 6.036281,-0.05692 1.019209,-0.31161 1.770555,-0.883792 2.516243,-1.619329 0.510939,-0.523091 0.902551,-1.13037 1.236344,-1.775496 0.163754,-0.371136 0.03664,-0.06767 0.171686,-0.432096 0.01845,-0.04979 0.03619,-0.100002 0.05886,-0.148018 0.0069,-0.01452 0.04519,-0.0384 0.02913,-0.03838 -4.082008,0.0046 -3.778497,-1.271448 -4.051682,0.273296 -0.159917,0.731486 -0.295664,1.466557 -0.425033,2.203973 -0.133103,0.693765 -0.260204,1.39079 -0.245941,2.098937 0.0377,0.815594 0.300139,1.601397 0.507262,2.386389 0.226828,0.941442 0.279877,1.911675 0.377091,2.872112 0.08955,0.855104 0.128562,1.712995 0.140264,2.572266 0.0068,0.860957 0.01202,1.721871 9.53e-4,2.582807 -0.0024,0.774629 -0.0045,1.549302 8.99e-4,2.323954 0.0055,0.919912 0.0036,1.839244 -0.02784,2.758673 -0.05124,1.130597 -0.104864,2.260968 -0.163422,3.391191 -0.03275,1.608876 -0.12115,3.214614 -0.20945,4.821203 -0.06793,0.977749 -0.11869,1.955718 -0.129082,2.93578 -0.03634,0.966007 -0.146249,1.927791 -0.25342,2.888017 -0.08029,0.766201 -0.213002,1.523185 -0.346996,2.281039 -0.301105,1.083773 -0.660232,2.150068 -1.034455,3.210428 -0.357794,1.145193 -0.869575,2.217711 -1.442709,3.267072 -0.415703,0.768694 -0.926718,1.473054 -1.438446,2.178124 -0.372908,0.442161 -0.790585,0.842997 -1.175795,1.273638 -0.266383,0.34422 -0.561179,0.659527 -0.867928,0.968338 -0.04484,0.0556 -0.08969,0.111202 -0.134536,0.166801 0,0 3.937688,0.280424 3.937688,0.280424 v 0 c 0.04368,-0.0472 0.08736,-0.09439 0.131044,-0.141589 0.303355,-0.313613 0.572727,-0.652904 0.855771,-0.984306 0.39664,-0.429995 0.810105,-0.848677 1.157829,-1.320101 0.506161,-0.714372 0.964981,-1.45868 1.38095,-2.229496 0.577062,-1.064561 1.066856,-2.166754 1.416087,-3.328974 0.386427,-1.089893 0.785012,-2.176542 1.140572,-3.276637 0.115069,-0.764408 0.206681,-1.529821 0.280853,-2.299523 0.120553,-0.973878 0.235893,-1.950011 0.292821,-2.929837 0.0067,-0.974098 0.0064,-1.948307 0.02946,-2.922217 0.05534,-1.60642 0.145248,-3.210478 0.2567,-4.813945 0.08412,-1.131237 0.108839,-2.263482 0.165691,-3.396343 0.06017,-0.925713 0.09428,-1.849517 0.07285,-2.777625 0.0059,-0.774607 0.0049,-1.549238 0.0041,-2.323832 -0.01,-0.863312 -0.0015,-1.726716 -0.01754,-2.589951 -0.019,-0.870265 -0.01444,-1.743988 -0.140816,-2.607339 -0.113126,-0.976897 -0.177813,-1.960121 -0.368107,-2.926474 -0.183418,-0.759188 -0.471255,-1.507302 -0.482224,-2.295346 -0.0041,-0.680608 0.10015,-1.354866 0.219043,-2.023805 0.137759,-0.734311 0.275676,-1.46862 0.475722,-2.189276 0.388505,-1.488048 0.143826,-0.256988 -3.874676,-0.496657 -0.01427,-8.47e-4 0.003,0.02899 -3.7e-4,0.04289 -0.01181,0.04937 -0.02825,0.09756 -0.04474,0.145568 -0.02121,0.06175 -0.04342,0.123215 -0.06833,0.18357 -0.02789,0.06759 -0.05998,0.133375 -0.08997,0.200063 -0.304109,0.607494 -0.68133,1.172202 -1.172232,1.647585 -0.732525,0.676968 -1.506477,1.193969 -2.500945,1.402509 -1.590957,0.23936 -0.46961,0.04796 3.035881,0.08209 0.123598,0.0012 -0.246985,0.01517 -0.370575,0.01329 -0.07783,-0.0012 -0.590263,-0.04354 -0.675348,-0.05144 -0.08692,-0.0081 -0.173628,-0.01823 -0.260443,-0.02735 z" />
    <path
       style="fill:#00a4ff;fill-opacity:1;stroke-width:17.465"
       id="path57"
       d="m 26.417029,24.404272 c 0.492404,-0.268068 1.007731,-0.467283 1.543012,-0.628509 0.659245,-0.159347 1.328091,-0.282979 2.00262,-0.358297 0.826377,-0.06874 1.656982,-0.06399 2.485623,-0.06704 1.381546,0.0021 3.647009,-0.0023 -2.730191,0.0018 -0.09869,6.3e-5 0.197392,6.61e-4 0.296087,10e-4 0.332526,0.0013 0.181719,-6.08e-4 0.495291,0.0061 0.553185,0.04167 1.048895,0.308646 1.526436,0.570462 0.513639,0.301066 1.020321,0.612344 1.497584,0.96862 0.519666,0.405946 0.991484,0.87215 1.372513,1.410618 0.342821,0.542438 0.616985,1.127968 0.8523,1.72415 0.178483,0.615262 0.370118,1.226049 0.558006,1.838408 0.246052,0.631024 0.432721,1.273189 0.538689,1.942123 0.06691,0.48019 0.07935,0.96546 0.08387,1.44955 7.9e-5,0.394693 -0.0049,0.789362 -0.0075,1.184044 0.01333,0.437007 -0.06969,0.868003 -0.174054,1.289957 -0.07752,0.412491 -0.224181,0.776259 -0.421031,1.142889 -0.227275,0.345829 -0.241242,0.602015 -0.608155,0.831541 -0.362734,0.201448 -0.703816,0.443497 -1.07401,0.6327 -0.396809,0.213313 -0.811665,0.401275 -1.229829,0.570913 -0.458668,0.148381 -0.939161,0.173649 -1.41699,0.188082 -0.260062,0.006 -0.520212,0.0064 -0.780328,0.0066 -0.09706,9.5e-5 -0.38825,-4.5e-5 -0.291187,-4e-5 3.685864,1.93e-4 4.719877,-0.0013 3.163902,7.94e-4 -1.084083,0.01529 -2.164822,-0.107381 -3.240282,-0.230711 -0.74706,-0.07629 -1.482569,-0.221652 -2.22036,-0.355624 -1.567619,-0.226841 -0.493096,-0.08344 -4.338863,0.0073 -0.0677,0.0016 -0.132154,0.03281 -0.193916,0.06059 -0.109994,0.04946 -0.206953,0.123992 -0.312478,0.182385 0,0 3.933992,0.441042 3.933992,0.441042 v 0 c 0.200149,-0.08429 0.652793,-0.114509 0.477672,-0.116335 -3.244503,-0.03387 -4.956451,0.03944 -3.455404,-0.02177 0.767867,0.105106 1.522025,0.295865 2.296489,0.358942 1.059583,0.136972 2.128903,0.259048 3.196838,0.284392 1.88449,0.0082 3.77078,0.04808 5.6541,-0.024 0.493972,-0.04109 0.985494,-0.115089 1.440214,-0.324641 0.416809,-0.191654 0.840994,-0.368009 1.232895,-0.609206 0.373147,-0.222583 0.76004,-0.430922 1.095071,-0.709356 0.271312,-0.288975 0.422103,-0.643342 0.61523,-0.985994 0.193786,-0.393218 0.331645,-0.808616 0.418867,-1.238641 0.10282,-0.452752 0.178727,-0.915101 0.184486,-1.380268 2.65e-4,-0.39665 0.0011,-0.793311 -0.003,-1.189947 -0.0067,-0.504869 -0.02661,-1.00983 -0.111257,-1.508837 -0.115742,-0.681579 -0.275537,-1.353555 -0.539366,-1.994865 -0.189971,-0.620081 -0.386525,-1.238247 -0.561081,-1.862896 -0.227013,-0.630479 -0.522187,-1.235534 -0.85679,-1.815966 -0.374727,-0.576639 -0.838798,-1.079943 -1.363731,-1.525194 -0.460124,-0.409301 -0.997585,-0.709228 -1.524508,-1.024077 -0.474678,-0.307553 -0.974072,-0.589865 -1.519902,-0.748734 -0.277606,-0.0432 -0.541104,-0.03792 -0.822004,-0.03787 -1.657257,2.91e-4 -3.314835,-0.0075 -4.972165,0.0049 -0.84082,0.0085 -1.685762,0.0025 -2.521143,0.110423 -0.679263,0.1025 -1.359922,0.224512 -2.017232,0.426853 -0.550835,0.185432 -1.075303,0.436341 -1.589603,0.706401 z" />
    <path
       style="fill:#00a4ff;fill-opacity:1;stroke-width:17.465"
       id="path58"
       d="m 47.909142,45.968108 c -0.61494,-0.07115 -1.23222,-0.116892 -1.850302,-0.148894 -1.849289,-0.05982 -3.799904,-0.4954 -5.495094,0.324715 -0.697974,0.338418 -1.325915,0.801836 -1.908056,1.310363 -0.742619,0.622815 -1.254257,1.452578 -1.710748,2.295101 -0.443138,0.898607 -0.713542,1.861601 -0.963909,2.82693 -0.164645,0.627314 -0.242541,1.273233 -0.335812,1.913988 -0.05709,0.601771 -0.15295,1.198261 -0.209344,1.800119 -0.04185,0.767522 -0.05463,1.536753 -0.06676,2.305317 -0.0019,0.631317 0.04423,1.267299 0.133535,1.892581 0.148145,0.698542 0.43329,1.354579 0.736587,1.997443 0.400867,0.819242 0.986462,1.511371 1.629476,2.148821 0.494199,0.45352 1.08871,0.718786 1.736077,0.861079 1.592733,0.223176 3.221876,0.0769 4.818403,0.06315 0.306547,-0.0026 0.58193,-0.09079 0.862968,-0.200504 0.54419,-0.270746 0.955111,-0.730861 1.380779,-1.152499 0.56718,-0.564184 1.11367,-1.151421 1.61842,-1.772316 0.4176,-0.541931 0.86451,-1.049991 1.21917,-1.637626 0.23445,-0.496316 0.42319,-1.007107 0.54094,-1.543079 0.11334,-0.560557 0.13265,-1.134607 0.15257,-1.704578 0.0215,-0.498586 0.002,-0.997196 -0.006,-1.49579 -0.002,-0.602824 -10e-4,-1.205651 0.005,-1.808451 0.009,-0.479187 10e-4,-0.958376 0.003,-1.437598 0.004,-0.440959 0.002,-0.881909 0.004,-1.322882 0.005,-0.393605 0.002,-0.78718 2.6e-4,-1.180777 1.4e-4,-0.390462 0.002,-0.78092 0.003,-1.171382 -0.0278,-0.38354 0.007,-0.574752 0.25335,-0.863743 0.17591,-0.115366 0.29254,-0.3235 0.50923,-0.376192 0.0394,-0.0096 0.16233,-0.0019 0.12175,-0.0011 -1.27653,0.02289 -2.55307,0.04503 -3.8296,0.06754 0.0211,-0.02236 0.0331,-0.06151 0.0634,-0.06706 0.12669,-0.02323 0.15576,0.656408 0.16023,0.740614 0.0154,0.468548 0.0274,0.937797 -0.006,1.405665 -0.0629,0.627266 -0.10855,1.255887 -0.13175,1.885842 -0.0139,0.549309 -0.0269,1.098632 -0.034,1.648073 0.0186,0.465201 -0.0528,0.925269 -0.10059,1.386703 -0.0507,0.631727 -0.0516,1.26601 -0.0541,1.899348 0.006,0.648325 -0.008,1.296596 -0.0173,1.944823 -0.0247,0.532452 0.0113,1.059611 0.0653,1.588754 0.0762,0.67786 0.062,1.361149 0.15001,2.037453 0.0473,0.378036 0.17756,0.737272 0.24567,1.111469 0.098,0.477589 0.22893,0.944875 0.41988,1.393391 0.38369,0.756182 0.70926,1.545276 1.14038,2.276409 0.17611,0.276495 0.40585,0.502013 0.6471,0.719558 0,0 3.91255,-0.355626 3.91255,-0.355626 v 0 c -0.24875,-0.165904 -0.47958,-0.342178 -0.65534,-0.590063 -0.48693,-0.670214 -0.78534,-1.453502 -1.12579,-2.203932 -0.16948,-0.424143 -0.30368,-0.857692 -0.38411,-1.308338 -0.0635,-0.37524 -0.18799,-0.731808 -0.26352,-1.103598 -0.12108,-0.663459 -0.12962,-1.336823 -0.17933,-2.008434 -0.0314,-0.519136 -0.0397,-1.03728 -0.0366,-1.557345 -0.0102,-0.646827 -0.0249,-1.293852 -0.0108,-1.940737 0.01,-0.621348 0.0192,-1.243841 0.0804,-1.862685 0.0488,-0.474494 0.13427,-0.947632 0.10974,-1.426369 -0.005,-0.54455 -0.0118,-1.08938 0.008,-1.633718 0.0253,-0.624525 0.0636,-1.248439 0.14498,-1.868561 0.0448,-0.484325 0.0248,-0.972283 0.023,-1.458288 -0.0212,-0.42994 -0.0421,-0.877091 -0.24545,-1.265804 -2.4941,0.03881 -3.50468,-0.793596 -4.6734,0.674571 -0.219739,0.346448 -0.29514,0.701154 -0.26026,1.11134 0.0011,0.390462 0.0029,0.78092 0.0031,1.171382 -0.0013,0.393597 -0.0043,0.78717 2.65e-4,1.180772 0.0021,0.440976 -4.2e-5,0.881925 0.0037,1.322885 0.0021,0.47929 -0.0055,0.958553 0.0036,1.437804 0.0066,0.602985 0.0085,1.206 0.009,1.80902 -0.0057,0.495101 -0.01778,0.99002 -0.0123,1.485198 -0.008,0.543544 -0.02532,1.090044 -0.142613,1.623116 -0.12547,0.490855 -0.30449,0.968052 -0.538157,1.418164 -0.35174,0.56257 -0.783135,1.064091 -1.19276,1.58464 -0.506804,0.605179 -1.035087,1.192273 -1.615676,1.728311 -0.412292,0.388443 -0.830138,0.801844 -1.38762,0.966047 -0.256249,0.0556 -0.249089,0.06265 -0.51988,0.08435 -0.10523,0.0084 -0.421844,0.01516 -0.316283,0.01619 6.346184,0.06239 4.297331,0.0685 2.93827,-0.0145 -0.631609,-0.06547 -1.215732,-0.248501 -1.733627,-0.630621 -0.656958,-0.56879 -1.226508,-1.22515 -1.628931,-2.000858 -0.290775,-0.606909 -0.541785,-1.233578 -0.687674,-1.892393 -0.123711,-0.595368 -0.148971,-1.215443 -0.15976,-1.821653 0.0013,-0.757238 2.64e-4,-1.51565 0.07642,-2.270041 0.0624,-0.596048 0.161695,-1.187201 0.21069,-1.784688 0.08308,-0.627833 0.182396,-1.254694 0.31609,-1.873753 0.219633,-0.93772 0.453895,-1.874271 0.923489,-2.725677 0.459398,-0.80827 0.996534,-1.56768 1.731488,-2.151155 0.586476,-0.471508 1.211472,-0.90701 1.914213,-1.187746 0.256093,-0.08536 0.330796,-0.122955 0.5886,-0.163933 0.0863,-0.01371 0.348234,-0.02498 0.260858,-0.02588 -6.380472,-0.0654 -4.475668,-0.025 -3.121101,7.93e-4 0.606393,0.01982 1.21273,0.05032 1.815623,0.121317 z" />
    <path
       style="fill:#00a4ff;fill-opacity:1;stroke-width:17.465"
       id="path59"
       d="m 58.766682,49.106477 c 0.12716,0.759862 0.14921,1.53281 0.16602,2.301584 0.0156,0.706858 0.01,1.413848 0.01,2.120797 -10e-4,0.810921 0.0163,1.62184 0.0228,2.432769 -0.002,1.079299 0.0139,2.158545 0.002,3.237812 -7.9e-4,1.025398 -0.003,2.05091 -0.003,3.076395 0.0563,1.152912 -0.046,2.295798 -0.18019,3.439406 -0.076,0.798444 -0.20111,1.592472 -0.36521,2.37743 -0.0874,0.500708 -0.23385,0.987052 -0.31425,1.489353 -0.083,0.302498 -0.14634,0.608515 -0.18934,0.919069 0,0 3.95372,0.05565 3.95372,0.05565 v 0 c 0.0447,-0.308014 0.11583,-0.609907 0.18218,-0.913815 0.0748,-0.496059 0.20671,-0.980046 0.28641,-1.475211 0.14286,-0.798438 0.24292,-1.604018 0.30617,-2.412825 0.1029,-1.157174 0.22495,-2.315194 0.19112,-3.479059 -5.3e-4,-1.02548 -0.003,-2.050987 -0.003,-3.07638 -0.0113,-1.079232 0.005,-2.158439 0.003,-3.237703 0.007,-0.811144 0.0257,-1.62228 0.0244,-2.433418 -0.002,-0.710658 -0.0117,-1.421352 -0.0323,-2.131719 -0.0288,-0.780042 -0.0582,-1.56006 -0.1042,-2.339332 z" />
    <path
       style="fill:#00a4ff;fill-opacity:1;stroke-width:17.465"
       id="path60"
       d="m 61.903622,52.739685 c 0.19781,-0.499227 0.49791,-0.937871 0.78849,-1.384266 0.2349,-0.405474 0.59621,-0.683858 0.9662,-0.95609 0.37659,-0.308941 0.83043,-0.477364 1.30062,-0.582147 0.53039,-0.160202 1.08794,-0.201104 1.63852,-0.23073 0.51685,-0.01992 1.03419,-0.01696 1.55132,-0.0164 -6.74277,0.365961 -4.03559,-0.133964 -2.57108,0.02442 0.52933,0.0749 1.02533,0.298529 1.50738,0.520171 0.45202,0.230645 0.84988,0.53753 1.20577,0.896202 0.31507,0.371906 0.49308,0.811797 0.59437,1.282583 0.089,0.533684 0.0848,1.076855 0.0882,1.6162 -0.002,0.484738 -0.0118,0.969391 -0.0174,1.454092 7.9e-4,0.434691 -0.002,0.869293 0.004,1.303961 -0.005,0.525759 -1.9e-4,1.051171 0.0136,1.576756 -0.003,0.919313 -0.11915,1.827559 -0.25374,2.734714 -0.12982,1.086184 -0.23922,2.176172 -0.34397,3.2657 -0.0375,0.618394 -0.17208,1.224205 -0.25106,1.837499 -0.0523,0.528077 -0.0367,1.059278 -0.0349,1.589043 -0.009,0.5008 0.0236,1.00186 -0.0677,1.495988 -0.072,0.332986 -0.10002,0.672163 -0.11608,1.011706 -0.002,0.05768 -0.004,0.11535 -0.005,0.173027 0,0 3.95633,0.01291 3.95633,0.01291 v 0 c 0.002,-0.0554 0.004,-0.110791 0.006,-0.166184 0.0172,-0.325451 0.0508,-0.649058 0.11129,-0.969619 0.0692,-0.51667 0.0242,-1.036087 0.032,-1.555943 0.007,-0.51548 0.0157,-1.031811 0.0629,-1.545463 0.0631,-0.616606 0.16252,-1.23022 0.17799,-1.850946 0.0754,-1.083492 0.19421,-2.163765 0.34309,-3.239587 0.14306,-0.926901 0.25433,-1.854843 0.29389,-2.792867 0.0137,-0.52555 0.0181,-1.050923 0.0136,-1.576645 0.005,-0.434244 0.003,-0.868449 0.007,-1.302707 -0.002,-0.485677 -0.006,-0.971341 -0.009,-1.457018 -8e-4,-0.565767 0.011,-1.135367 -0.0724,-1.696461 -0.11095,-0.536062 -0.295,-1.032142 -0.60581,-1.487813 -0.34619,-0.425318 -0.76862,-0.755772 -1.23734,-1.039006 -0.47381,-0.26603 -0.97939,-0.47186 -1.4925,-0.649501 -0.13445,-0.02601 -0.26682,-0.06592 -0.40311,-0.07935 -1.45582,-0.143449 -4.33502,1.00502 -4.82128,-0.0011 -0.5174,0.0016 -1.03537,0.0049 -1.55148,0.04556 -0.56107,0.05342 -1.11945,0.137367 -1.65817,0.30906 -0.47949,0.167219 -0.92773,0.400614 -1.31755,0.7303 -0.38395,0.309835 -0.72805,0.659072 -0.97632,1.089854 -0.29179,0.456067 -0.53877,0.934643 -0.80693,1.404612 z" />
    <path
       style="fill:#00a4ff;fill-opacity:1;stroke-width:17.465"
       id="path61"
       d="m 88.960502,53.382704 c -0.45343,-0.424619 -0.92183,-0.829257 -1.4166,-1.204981 -0.35738,-0.241818 -0.71014,-0.492628 -1.11545,-0.646567 -0.48776,-0.156427 -0.99165,-0.212432 -1.50003,-0.248412 -1.85781,-0.03469 -3.7758,-0.360326 -5.59351,0.06476 -0.71062,0.156845 -1.37888,0.435052 -2.04357,0.724815 -0.85645,0.436039 -1.55484,1.09981 -2.1725,1.82431 -0.69628,0.798418 -1.13374,1.754188 -1.52914,2.725304 -0.26738,0.64698 -0.39572,1.331074 -0.51959,2.015741 -0.19918,0.89644 -0.27991,1.808835 -0.3339,2.72337 -0.0251,1.07841 -0.0353,2.157129 -0.0618,3.235653 -0.0138,0.512985 -0.0233,1.026059 -0.0272,1.539213 0.0185,0.452171 0.28227,0.823085 0.55942,1.160317 0.25755,0.306263 0.57173,0.562068 0.90053,0.787908 0.42944,0.321286 0.8865,0.602073 1.34215,0.883931 0.55974,0.359447 1.16668,0.623059 1.80516,0.803333 2.06833,0.385649 4.36126,0.191333 6.38804,0.183039 0.86705,-0.02058 1.7167,-0.116025 2.52067,-0.451845 0.64128,-0.351388 0.95842,-0.755841 1.27913,-1.395127 0.24957,-0.593815 0.36049,-1.244544 0.46772,-1.878457 0.0574,-0.819502 0.14484,-1.636329 0.19819,-2.456135 0.0569,-0.927139 0.0562,-1.856446 0.0688,-2.784864 0.0217,-0.77325 0.0106,-1.546706 0.008,-2.320081 0.008,-0.707228 0.003,-1.414515 0.009,-2.121746 5.3e-4,-0.836451 -0.022,-1.672558 -0.0226,-2.509047 -0.0159,-1.146545 -0.009,-2.293151 -0.01,-3.439755 0.001,-1.056105 0.005,-2.112129 0.0147,-3.168197 0.0158,-0.846133 0.003,-1.692252 0.002,-2.53841 -0.0103,-0.804847 0.004,-1.609757 0.0186,-2.414455 0.01,-0.486831 0.008,-0.973783 0.009,-1.46068 0.004,-0.427787 0.005,-0.855475 -2.6e-4,-1.283237 0.0467,-0.584468 0.10508,-1.167509 0.13424,-1.753257 0.10421,-0.877469 0.22661,-1.750343 0.27308,-2.633334 0.0653,-1.006917 0.08,-2.015713 0.093,-3.024323 0.0194,-0.743505 0.0104,-1.487242 0.0136,-2.230855 -0.008,-0.685413 -0.002,-1.37078 0.008,-2.056124 0.007,-0.422406 0.002,-0.844853 0.005,-1.2673 0,0 -3.93712,0 -3.93712,0 v 0 c 0.003,0.42248 -0.002,0.844963 0.005,1.2674 0.0104,0.685465 0.0162,1.37095 0.0102,2.0565 0.005,0.742627 -2.6e-4,1.485342 0.0129,2.227934 2.7e-4,1.000079 -0.008,2.000904 -0.0681,2.999447 -0.0794,0.885039 -0.20509,1.76167 -0.33529,2.639782 -0.0337,0.593098 -0.0914,1.18349 -0.15388,1.77413 -0.006,0.427762 -0.004,0.85545 -2.6e-4,1.283237 10e-4,0.486897 -5.3e-4,0.973849 0.009,1.46068 0.0151,0.804698 0.0289,1.609608 0.0186,2.414455 -5.3e-4,0.846158 -0.0136,1.692277 0.002,2.53841 0.0101,1.056065 0.0135,2.112092 0.0147,3.168194 -10e-4,1.146604 0.006,2.293213 -0.01,3.439758 -5.2e-4,0.836512 -0.0231,1.672649 -0.0224,2.509126 0.006,0.7073 0.002,1.414661 0.0108,2.121951 -0.001,0.772427 -0.009,1.544859 0.005,2.317244 5.2e-4,0.920509 -0.0142,1.841532 -0.0709,2.760488 -0.0596,0.807344 -0.14226,1.613186 -0.23567,2.41699 -0.10153,0.593878 -0.19232,1.206119 -0.46126,1.75088 -0.29469,0.507325 -0.68204,0.907317 -1.24564,1.113925 -0.799,0.25441 -1.6301,0.312568 -2.46519,0.332811 6.60311,0.02622 2.82325,0.09794 1.31127,-0.109971 -0.62931,-0.121206 -1.22988,-0.338926 -1.77008,-0.690483 -0.45865,-0.25436 -0.89452,-0.54691 -1.32728,-0.842666 -0.77996,-0.623213 0.32083,0.238453 -0.35836,-0.242896 -0.18561,-0.131545 -0.33162,-0.321416 -0.52005,-0.450977 -0.22293,-0.268748 -0.52221,-0.518866 -0.55279,-0.888505 -0.006,-0.512585 -0.0191,-1.025025 -0.0318,-1.537483 -0.0216,-1.071229 -0.0281,-2.143056 0.0411,-3.212978 0.0565,-0.899885 0.15232,-1.797836 0.37484,-2.67398 0.12861,-0.655331 0.2546,-1.312532 0.48694,-1.941446 0.36654,-0.940253 0.81897,-1.840363 1.50586,-2.592517 0.62751,-0.6809 1.33209,-1.290283 2.19784,-1.648802 0.66153,-0.275016 1.3352,-0.522618 2.04714,-0.631753 1.46941,-0.151501 0.38985,-0.03001 -3.27673,-0.03832 -0.41797,-0.0011 1.59282,0.007 1.10852,0.01662 0.48795,0.02048 0.98507,0.02371 1.45458,0.17436 0.42918,0.06321 0.76889,0.277723 1.13459,0.501373 0.49901,0.333255 0.95232,0.720563 1.37773,1.142822 z" />
    <path
       style="fill:#00a4ff;fill-opacity:1;stroke-width:17.465"
       id="path62"
       d="m 104.03651,54.06171 c -0.58566,-0.06796 -1.15287,-0.236776 -1.72615,-0.367959 -1.78778,-0.321633 -3.679828,-0.136657 -5.455008,-0.127156 -0.57826,0.13026 -1.12731,0.355703 -1.63201,0.667168 -0.62604,0.373613 -1.10939,0.88772 -1.56736,1.44567 -0.60798,0.624988 -0.9856,1.412484 -1.47077,2.124594 -0.30395,0.469225 -0.51783,0.981964 -0.68252,1.514194 -0.14322,0.530265 -0.17351,1.076542 -0.18672,1.622481 0.006,0.829342 0.0169,1.658538 0.008,2.487885 -0.0383,0.617196 0.15788,1.155009 0.44046,1.689632 0.26687,0.408527 0.54525,0.813138 0.84163,1.201338 0.3128,0.426968 0.76231,0.559808 1.26213,0.63125 0.81082,0.09325 1.62462,0.145532 2.43974,0.181219 1.85818,0.009 3.798428,0.44809 5.583808,-0.144645 0.57362,-0.213344 1.04994,-0.597329 1.53031,-0.964404 0.5317,-0.468413 1.03403,-0.972788 1.46987,-1.531532 0.3563,-0.590003 0.72465,-1.180235 1.01743,-1.805406 0.19225,-0.452967 0.264,-0.941014 0.36749,-1.418394 0.10791,-0.530093 0.16881,-1.066872 0.25489,-1.600459 0.0914,-0.519624 0.19876,-1.03455 0.26526,-1.558492 0.0449,-0.404616 0.0454,-0.809164 0.11675,-1.210177 0.0635,-0.407263 0.0951,-0.818118 0.11356,-1.229567 0.14682,-1.807371 -1.12229,-0.602395 -4.02047,-0.309541 -0.0157,0.0016 -0.071,0.254519 -0.10279,0.39193 -0.12304,0.533397 -0.21537,1.070758 -0.2765,1.614633 -0.0463,0.564684 -0.0581,1.131549 -0.0588,1.6979 0.005,0.593815 0.005,1.187559 -0.001,1.781355 -0.0126,0.463886 -0.0254,0.921581 0.0693,1.377394 0.0864,0.423135 0.22787,0.830186 0.37099,1.236581 0.14774,0.44918 0.37952,0.856244 0.61081,1.26574 0.35627,0.535988 0.62795,1.120947 0.96146,1.669738 0.23089,0.369392 0.56599,0.626038 0.95866,0.801507 0.32366,0.128977 0.64554,0.230857 0.99124,0.279678 0.37492,0.0173 0.74253,0.0626 1.11224,0.125264 0.26324,0.04672 0.53009,0.06303 0.79656,0.07783 0,0 3.90071,-0.602271 3.90071,-0.602271 v 0 c -0.26158,-0.0058 -0.52383,-0.0093 -0.78426,-0.03676 -0.37471,-0.04691 -0.73692,-0.160078 -1.11696,-0.144293 -0.33685,-0.01765 -0.67431,-0.02664 -0.97675,-0.195979 -0.373,-0.07256 -0.70513,-0.237681 -0.95552,-0.531453 -0.36369,-0.522356 -0.62245,-1.106054 -0.9712,-1.63875 -0.2098,-0.399867 -0.43641,-0.7859 -0.57783,-1.216898 -0.16318,-0.376669 -0.28202,-0.775671 -0.38232,-1.173448 -0.0957,-0.426792 -0.0654,-0.859216 -0.0749,-1.294437 -0.008,-0.592783 -0.0114,-1.185564 -0.003,-1.778376 0.006,-0.552685 0.004,-1.106527 0.0584,-1.657204 0.0564,-0.52261 0.15163,-1.037725 0.29677,-1.543521 0.0207,-0.05336 0.0354,-0.109416 0.062,-0.160092 0.0157,-0.02995 0.0973,-0.07941 0.0635,-0.07914 -3.49939,0.02802 -3.96816,1.420535 -3.90619,-0.202401 0.003,-0.0761 0.0121,0.412417 0.005,0.22842 -0.0155,0.395185 -0.0414,0.79075 -0.11461,1.180121 -0.0653,0.407731 -0.0633,0.817719 -0.10116,1.228466 -0.0606,0.51907 -0.17577,1.026845 -0.26004,1.541994 -0.0886,0.526153 -0.13624,1.058524 -0.25589,1.579208 -0.10094,0.448937 -0.18327,0.905484 -0.36372,1.331648 -0.2788,0.594551 -0.59912,1.178944 -0.98781,1.708264 -0.45051,0.514842 -0.91804,1.020355 -1.462688,1.438013 -0.47537,0.345988 -0.97058,0.675582 -1.55018,0.816332 -1.25574,0.279575 -3.57249,0.06403 3.177368,0.07667 0.0973,1.82e-4 -0.19448,-0.0013 -0.29172,-0.0024 -0.32977,-0.0039 -0.36889,-0.0057 -0.71114,-0.01323 -0.801508,-0.02471 -1.604578,-0.0538 -2.399858,-0.163721 -0.42265,-0.02088 -0.88965,-0.01172 -1.2157,-0.321556 -0.30726,-0.359283 -0.55437,-0.761738 -0.8432,-1.135716 -0.28113,-0.466836 -0.48542,-0.929841 -0.47802,-1.488379 -0.0112,-0.824857 -0.009,-1.650214 0.0237,-2.474606 0.0207,-0.508076 0.0469,-1.021265 0.19431,-1.511488 0.16948,-0.495117 0.3681,-0.975341 0.65532,-1.41597 0.43139,-0.723887 0.84237,-1.460691 1.43931,-2.067793 0.47131,-0.506976 0.97099,-0.97912 1.58839,-1.306811 0.51481,-0.249111 1.051578,-0.465881 1.630178,-0.494872 -6.837558,-0.01879 -3.862558,-0.09738 -2.332438,0.07318 0.57504,0.105265 1.13713,0.263173 1.704268,0.402342 z" />
    <path
       style="fill:#00fbff;fill-opacity:1;stroke-width:17.465"
       id="path56-2"
       d="m 20.162973,26.649393 c 1.996702,0.162807 4.083643,0.455496 6.036281,-0.05692 1.019209,-0.31161 1.770555,-0.883792 2.516243,-1.619329 0.510939,-0.523091 0.902551,-1.13037 1.236344,-1.775496 0.163754,-0.371136 0.03664,-0.06767 0.171686,-0.432096 0.01845,-0.04979 0.03619,-0.100002 0.05886,-0.148018 0.0069,-0.01452 0.04519,-0.0384 0.02913,-0.03838 -4.082008,0.0046 -3.778497,-1.271448 -4.051682,0.273296 -0.159917,0.731486 -0.295664,1.466557 -0.425033,2.203973 -0.133103,0.693765 -0.260204,1.39079 -0.245941,2.098937 0.0377,0.815594 0.300139,1.601397 0.507262,2.386389 0.226828,0.941442 0.279877,1.911675 0.377091,2.872112 0.08955,0.855104 0.128562,1.712995 0.140264,2.572266 0.0068,0.860957 0.01202,1.721871 9.53e-4,2.582807 -0.0024,0.774629 -0.0045,1.549302 8.99e-4,2.323954 0.0055,0.919912 0.0036,1.839244 -0.02784,2.758673 -0.05124,1.130597 -0.104864,2.260968 -0.163422,3.391191 -0.03275,1.608876 -0.12115,3.214614 -0.20945,4.821203 -0.06793,0.977749 -0.11869,1.955718 -0.129082,2.93578 -0.03634,0.966007 -0.146249,1.927791 -0.25342,2.888017 -0.08029,0.766201 -0.213002,1.523185 -0.346996,2.281039 -0.301105,1.083773 -0.660232,2.150068 -1.034455,3.210428 -0.357794,1.145193 -0.869575,2.217711 -1.442709,3.267072 -0.415703,0.768694 -0.926718,1.473054 -1.438446,2.178124 -0.372908,0.442161 -0.790585,0.842997 -1.175795,1.273638 -0.266383,0.34422 -0.561179,0.659527 -0.867928,0.968338 -0.04484,0.0556 -0.08969,0.111202 -0.134536,0.166801 0,0 3.937688,0.280424 3.937688,0.280424 v 0 c 0.04368,-0.0472 0.08736,-0.09439 0.131044,-0.141589 0.303355,-0.313613 0.572727,-0.652904 0.855771,-0.984306 0.39664,-0.429995 0.810105,-0.848677 1.157829,-1.320101 0.506161,-0.714372 0.964981,-1.45868 1.38095,-2.229496 0.577062,-1.064561 1.066856,-2.166754 1.416087,-3.328974 0.386427,-1.089893 0.785012,-2.176542 1.140572,-3.276637 0.115069,-0.764408 0.206681,-1.529821 0.280853,-2.299523 0.120553,-0.973878 0.235893,-1.950011 0.292821,-2.929837 0.0067,-0.974098 0.0064,-1.948307 0.02946,-2.922217 0.05534,-1.60642 0.145248,-3.210478 0.2567,-4.813945 0.08412,-1.131237 0.108839,-2.263482 0.165691,-3.396343 0.06017,-0.925713 0.09428,-1.849517 0.07285,-2.777625 0.0059,-0.774607 0.0049,-1.549238 0.0041,-2.323832 -0.01,-0.863312 -0.0015,-1.726716 -0.01754,-2.589951 -0.019,-0.870265 -0.01444,-1.743988 -0.140816,-2.607339 -0.113126,-0.976897 -0.177813,-1.960121 -0.368107,-2.926474 -0.183418,-0.759188 -0.471255,-1.507302 -0.482224,-2.295346 -0.0041,-0.680608 0.10015,-1.354866 0.219043,-2.023805 0.137759,-0.734311 0.275676,-1.46862 0.475722,-2.189276 0.388505,-1.488048 0.143826,-0.256988 -3.874676,-0.496657 -0.01427,-8.47e-4 0.003,0.02899 -3.7e-4,0.04289 -0.01181,0.04937 -0.02825,0.09756 -0.04474,0.145568 -0.02121,0.06175 -0.04342,0.123215 -0.06833,0.18357 -0.02789,0.06759 -0.05998,0.133375 -0.08997,0.200063 -0.304109,0.607494 -0.68133,1.172202 -1.172232,1.647585 -0.732525,0.676968 -1.506477,1.193969 -2.500945,1.402509 -1.590957,0.23936 -0.46961,0.04796 3.035881,0.08209 0.123598,0.0012 -0.246985,0.01517 -0.370575,0.01329 -0.07783,-0.0012 -0.590263,-0.04354 -0.675348,-0.05144 -0.08692,-0.0081 -0.173628,-0.01823 -0.260443,-0.02735 z" />
    <path
       style="fill:#00fbff;fill-opacity:1;stroke-width:17.465"
       id="path57-2"
       d="m 29.345128,23.123668 c 0.492404,-0.268068 1.007731,-0.467283 1.543012,-0.628509 0.659245,-0.159347 1.328091,-0.282979 2.00262,-0.358297 0.826377,-0.06874 1.656982,-0.06399 2.485623,-0.06704 1.381546,0.0021 3.647009,-0.0023 -2.730191,0.0018 -0.09869,6.3e-5 0.197392,6.61e-4 0.296087,10e-4 0.332526,0.0013 0.181719,-6.08e-4 0.495291,0.0061 0.553185,0.04167 1.048895,0.308646 1.526436,0.570462 0.513639,0.301066 1.020321,0.612344 1.497584,0.96862 0.519666,0.405946 0.991484,0.87215 1.372513,1.410618 0.342821,0.542438 0.616985,1.127968 0.8523,1.72415 0.178483,0.615262 0.370118,1.226049 0.558006,1.838408 0.246052,0.631024 0.432721,1.273189 0.538689,1.942123 0.06691,0.48019 0.07935,0.96546 0.08387,1.44955 7.9e-5,0.394693 -0.0049,0.789362 -0.0075,1.184044 0.01333,0.437007 -0.06969,0.868003 -0.174054,1.289957 -0.07752,0.412491 -0.224181,0.776259 -0.421031,1.142889 -0.227275,0.345829 -0.241242,0.602015 -0.608155,0.831541 -0.362734,0.201448 -0.703816,0.443497 -1.07401,0.6327 -0.396809,0.213313 -0.811665,0.401275 -1.229829,0.570913 -0.458668,0.148381 -0.939161,0.173649 -1.41699,0.188082 -0.260062,0.006 -0.520212,0.0064 -0.780328,0.0066 -0.09706,9.5e-5 -0.38825,-4.5e-5 -0.291187,-4e-5 3.685864,1.93e-4 4.719877,-0.0013 3.163902,7.94e-4 -1.084083,0.01529 -2.164822,-0.107381 -3.240282,-0.230711 -0.74706,-0.07629 -1.482569,-0.221652 -2.22036,-0.355624 -1.567619,-0.226841 -0.493096,-0.08344 -4.338863,0.0073 -0.0677,0.0016 -0.132154,0.03281 -0.193916,0.06059 -0.109994,0.04946 -0.206953,0.123992 -0.312478,0.182385 0,0 3.933992,0.441042 3.933992,0.441042 v 0 c 0.200149,-0.08429 0.652793,-0.114509 0.477672,-0.116335 -3.244503,-0.03387 -4.956451,0.03944 -3.455404,-0.02177 0.767867,0.105106 1.522025,0.295865 2.296489,0.358942 1.059583,0.136972 2.128903,0.259048 3.196838,0.284392 1.88449,0.0082 3.77078,0.04808 5.6541,-0.024 0.493972,-0.04109 0.985494,-0.115089 1.440214,-0.324641 0.416809,-0.191654 0.840994,-0.368009 1.232895,-0.609206 0.373147,-0.222583 0.76004,-0.430922 1.095071,-0.709356 0.271312,-0.288975 0.422103,-0.643342 0.61523,-0.985994 0.193786,-0.393218 0.331645,-0.808616 0.418867,-1.238641 0.10282,-0.452752 0.178727,-0.915101 0.184486,-1.380268 2.65e-4,-0.39665 0.0011,-0.793311 -0.003,-1.189947 -0.0067,-0.504869 -0.02661,-1.00983 -0.111257,-1.508837 -0.115742,-0.681579 -0.275537,-1.353555 -0.539366,-1.994865 -0.189971,-0.620081 -0.386525,-1.238247 -0.561081,-1.862896 -0.227013,-0.630479 -0.522187,-1.235534 -0.85679,-1.815966 -0.374727,-0.576639 -0.838798,-1.079943 -1.363731,-1.525194 -0.460124,-0.409301 -0.997585,-0.709228 -1.524508,-1.024077 -0.474678,-0.307553 -0.974072,-0.589865 -1.519902,-0.748734 -0.277606,-0.0432 -0.541104,-0.03792 -0.822004,-0.03787 -1.657257,2.91e-4 -3.314835,-0.0075 -4.972165,0.0049 -0.84082,0.0085 -1.685762,0.0025 -2.521143,0.110423 -0.679263,0.1025 -1.359922,0.224512 -2.017232,0.426853 -0.550835,0.185432 -1.075303,0.436341 -1.589603,0.706401 z" />
    <path
       style="fill:#00fbff;fill-opacity:1;stroke-width:17.465"
       id="path58-9"
       d="m 50.837242,44.687504 c -0.61494,-0.07115 -1.23222,-0.116892 -1.8503,-0.148894 -1.84929,-0.05982 -3.799907,-0.4954 -5.495097,0.324715 -0.697974,0.338418 -1.325915,0.801836 -1.908056,1.310363 -0.742619,0.622815 -1.254257,1.452578 -1.710748,2.295101 -0.443138,0.898607 -0.713542,1.861601 -0.963909,2.82693 -0.164645,0.627314 -0.242541,1.273233 -0.335812,1.913988 -0.05709,0.601771 -0.15295,1.198261 -0.209344,1.800119 -0.04185,0.767522 -0.05463,1.536753 -0.06676,2.305317 -0.0019,0.631317 0.04423,1.267299 0.133535,1.892581 0.148145,0.698542 0.43329,1.354579 0.736587,1.997443 0.400867,0.819242 0.986462,1.511371 1.629476,2.148821 0.494199,0.45352 1.08871,0.718786 1.736077,0.861079 1.592733,0.223176 3.221876,0.0769 4.818401,0.06315 0.30655,-0.0026 0.58193,-0.09079 0.86297,-0.200504 0.54419,-0.270746 0.95511,-0.730861 1.38078,-1.152499 0.56718,-0.564184 1.11367,-1.151421 1.61842,-1.772316 0.4176,-0.541931 0.86451,-1.049991 1.21917,-1.637626 0.23445,-0.496316 0.42319,-1.007107 0.54094,-1.543079 0.11334,-0.560557 0.13265,-1.134607 0.15257,-1.704578 0.0215,-0.498586 0.002,-0.997196 -0.006,-1.49579 -0.002,-0.602824 -0.001,-1.205651 0.005,-1.808451 0.009,-0.479187 0.001,-0.958376 0.003,-1.437598 0.004,-0.440959 0.002,-0.881909 0.004,-1.322882 0.005,-0.393605 0.002,-0.78718 2.6e-4,-1.180777 1.3e-4,-0.390462 0.002,-0.78092 0.003,-1.171382 -0.0278,-0.38354 0.007,-0.574752 0.25335,-0.863743 0.17591,-0.115366 0.29254,-0.3235 0.50923,-0.376192 0.0394,-0.0096 0.16233,-0.0019 0.12175,-0.0011 -1.27653,0.02289 -2.55307,0.04503 -3.8296,0.06754 0.0211,-0.02236 0.0331,-0.06151 0.0634,-0.06706 0.12669,-0.02323 0.15575,0.656408 0.16023,0.740614 0.0154,0.468548 0.0274,0.937797 -0.006,1.405665 -0.0629,0.627266 -0.10855,1.255887 -0.13175,1.885842 -0.0139,0.549309 -0.0269,1.098632 -0.034,1.648073 0.0186,0.465201 -0.0528,0.925269 -0.10059,1.386703 -0.0507,0.631727 -0.0516,1.26601 -0.0541,1.899348 0.006,0.648325 -0.008,1.296596 -0.0173,1.944823 -0.0247,0.532452 0.0113,1.059611 0.0653,1.588754 0.0762,0.67786 0.062,1.361149 0.15001,2.037453 0.0473,0.378036 0.17756,0.737272 0.24567,1.111469 0.098,0.477589 0.22893,0.944875 0.41988,1.393391 0.38369,0.756182 0.70925,1.545276 1.14038,2.276409 0.17611,0.276495 0.40585,0.502013 0.6471,0.719558 0,0 3.91255,-0.355626 3.91255,-0.355626 v 0 c -0.24876,-0.165904 -0.47958,-0.342178 -0.65534,-0.590063 -0.48693,-0.670214 -0.78534,-1.453502 -1.12579,-2.203932 -0.16948,-0.424143 -0.30369,-0.857692 -0.38411,-1.308338 -0.0635,-0.37524 -0.18799,-0.731808 -0.26352,-1.103598 -0.12108,-0.663459 -0.12962,-1.336823 -0.17933,-2.008434 -0.0314,-0.519136 -0.0397,-1.03728 -0.0366,-1.557345 -0.0102,-0.646827 -0.0249,-1.293852 -0.0108,-1.940737 0.01,-0.621348 0.0192,-1.243841 0.0804,-1.862685 0.0488,-0.474494 0.13426,-0.947632 0.10974,-1.426369 -0.005,-0.54455 -0.0118,-1.08938 0.008,-1.633718 0.0253,-0.624525 0.0636,-1.248439 0.14498,-1.868561 0.0448,-0.484325 0.0248,-0.972283 0.023,-1.458288 -0.0212,-0.42994 -0.0421,-0.877091 -0.24546,-1.265804 -2.4941,0.03881 -3.50468,-0.793596 -4.67339,0.674571 -0.21974,0.346448 -0.29514,0.701154 -0.26026,1.11134 0.001,0.390462 0.003,0.78092 0.003,1.171382 -10e-4,0.393597 -0.004,0.78717 2.6e-4,1.180772 0.002,0.440976 -4e-5,0.881925 0.004,1.322885 0.002,0.47929 -0.005,0.958553 0.004,1.437804 0.007,0.602985 0.009,1.206 0.009,1.80902 -0.006,0.495101 -0.0178,0.99002 -0.0123,1.485198 -0.008,0.543544 -0.0253,1.090044 -0.14261,1.623116 -0.12547,0.490855 -0.30449,0.968052 -0.53816,1.418164 -0.35174,0.56257 -0.78313,1.064091 -1.19276,1.58464 -0.5068,0.605179 -1.035083,1.192273 -1.615672,1.728311 -0.412292,0.388443 -0.830138,0.801844 -1.38762,0.966047 -0.256249,0.0556 -0.249089,0.06265 -0.51988,0.08435 -0.10523,0.0084 -0.421844,0.01516 -0.316283,0.01619 6.346185,0.06239 4.297335,0.0685 2.938265,-0.0145 -0.631604,-0.06547 -1.215727,-0.248501 -1.733622,-0.630621 -0.656958,-0.56879 -1.226508,-1.22515 -1.628931,-2.000858 -0.290775,-0.606909 -0.541785,-1.233578 -0.687674,-1.892393 -0.123711,-0.595368 -0.148971,-1.215443 -0.15976,-1.821653 0.0013,-0.757238 2.64e-4,-1.51565 0.07642,-2.270041 0.0624,-0.596048 0.161695,-1.187201 0.21069,-1.784688 0.08308,-0.627833 0.182396,-1.254694 0.31609,-1.873753 0.219633,-0.93772 0.453895,-1.874271 0.923489,-2.725677 0.459398,-0.80827 0.996534,-1.56768 1.731488,-2.151155 0.586476,-0.471508 1.21147,-0.90701 1.91421,-1.187746 0.2561,-0.08536 0.3308,-0.122955 0.5886,-0.163933 0.0863,-0.01371 0.34824,-0.02498 0.26086,-0.02588 -6.380471,-0.0654 -4.475667,-0.025 -3.1211,7.93e-4 0.606393,0.01982 1.21273,0.05032 1.81562,0.121317 z" />
    <path
       style="fill:#00fbff;fill-opacity:1;stroke-width:17.465"
       id="path59-3"
       d="m 61.694782,47.825873 c 0.12715,0.759862 0.1492,1.53281 0.16602,2.301584 0.0156,0.706858 0.01,1.413848 0.01,2.120797 -10e-4,0.810921 0.0163,1.62184 0.0228,2.432769 -0.002,1.079299 0.0139,2.158545 0.002,3.237812 -7.9e-4,1.025398 -0.003,2.05091 -0.003,3.076395 0.0563,1.152912 -0.046,2.295798 -0.18019,3.439406 -0.076,0.798444 -0.20111,1.592472 -0.36521,2.37743 -0.0874,0.500708 -0.23385,0.987052 -0.31425,1.489353 -0.083,0.302498 -0.14634,0.608515 -0.18934,0.919069 0,0 3.95372,0.05565 3.95372,0.05565 v 0 c 0.0447,-0.308014 0.11583,-0.609907 0.18218,-0.913815 0.0748,-0.496059 0.20671,-0.980046 0.28641,-1.475211 0.14285,-0.798438 0.24292,-1.604018 0.30617,-2.412825 0.1029,-1.157174 0.22495,-2.315194 0.19112,-3.479059 -5.3e-4,-1.02548 -0.003,-2.050987 -0.003,-3.07638 -0.0113,-1.079232 0.005,-2.158439 0.003,-3.237703 0.007,-0.811144 0.0257,-1.62228 0.0244,-2.433418 -0.002,-0.710658 -0.0117,-1.421352 -0.0323,-2.131719 -0.0288,-0.780042 -0.0582,-1.56006 -0.1042,-2.339332 z" />
    <path
       style="fill:#00fbff;fill-opacity:1;stroke-width:17.465"
       id="path60-7"
       d="m 64.831722,51.459081 c 0.19781,-0.499227 0.49791,-0.937871 0.78849,-1.384266 0.2349,-0.405474 0.59621,-0.683858 0.9662,-0.95609 0.37659,-0.308941 0.83043,-0.477364 1.30062,-0.582147 0.53039,-0.160202 1.08794,-0.201104 1.63852,-0.23073 0.51685,-0.01992 1.03419,-0.01696 1.55132,-0.0164 -6.74277,0.365961 -4.03559,-0.133964 -2.57109,0.02442 0.52934,0.0749 1.02534,0.298529 1.50739,0.520171 0.45202,0.230645 0.84988,0.53753 1.20577,0.896202 0.31507,0.371906 0.49308,0.811797 0.59437,1.282583 0.089,0.533684 0.0848,1.076855 0.0882,1.6162 -0.002,0.484738 -0.0118,0.969391 -0.0174,1.454092 7.9e-4,0.434691 -0.002,0.869293 0.004,1.303961 -0.005,0.525759 -1.9e-4,1.051171 0.0136,1.576756 -0.003,0.919313 -0.11915,1.827559 -0.25375,2.734714 -0.12981,1.086184 -0.23921,2.176172 -0.34396,3.2657 -0.0375,0.618394 -0.17208,1.224205 -0.25106,1.837499 -0.0523,0.528077 -0.0367,1.059278 -0.0349,1.589043 -0.009,0.5008 0.0236,1.00186 -0.0677,1.495988 -0.072,0.332986 -0.10002,0.672163 -0.11608,1.011706 -0.002,0.05768 -0.004,0.11535 -0.005,0.173027 0,0 3.95632,0.01291 3.95632,0.01291 v 0 c 0.002,-0.0554 0.004,-0.110791 0.006,-0.166184 0.0172,-0.325451 0.0508,-0.649058 0.1113,-0.969619 0.0692,-0.51667 0.0242,-1.036087 0.032,-1.555943 0.007,-0.51548 0.0157,-1.031811 0.0629,-1.545463 0.0631,-0.616606 0.16252,-1.23022 0.17799,-1.850946 0.0754,-1.083492 0.19421,-2.163765 0.34308,-3.239587 0.14307,-0.926901 0.25433,-1.854843 0.2939,-2.792867 0.0137,-0.52555 0.0181,-1.050923 0.0136,-1.576645 0.005,-0.434244 0.003,-0.868449 0.007,-1.302707 -0.002,-0.485677 -0.006,-0.971341 -0.009,-1.457018 -7.9e-4,-0.565767 0.011,-1.135367 -0.0724,-1.696461 -0.11096,-0.536062 -0.295,-1.032142 -0.60581,-1.487813 -0.34619,-0.425318 -0.76862,-0.755772 -1.23735,-1.039006 -0.4738,-0.26603 -0.97938,-0.47186 -1.49249,-0.649501 -0.13445,-0.02601 -0.26682,-0.06592 -0.40311,-0.07935 -1.45582,-0.143449 -4.33502,1.00502 -4.82128,-0.0011 -0.5174,0.0016 -1.03537,0.0049 -1.55148,0.04556 -0.56107,0.05342 -1.11945,0.137367 -1.65817,0.30906 -0.47949,0.167219 -0.92773,0.400614 -1.31755,0.7303 -0.38395,0.309835 -0.72805,0.659072 -0.97632,1.089854 -0.29179,0.456067 -0.53877,0.934643 -0.80693,1.404612 z" />
    <path
       style="fill:#00fbff;fill-opacity:1;stroke-width:17.465"
       id="path61-6"
       d="m 91.888602,52.1021 c -0.45343,-0.424619 -0.92184,-0.829257 -1.4166,-1.204981 -0.35738,-0.241818 -0.71015,-0.492628 -1.11545,-0.646567 -0.48776,-0.156427 -0.99165,-0.212432 -1.50003,-0.248412 -1.85781,-0.03469 -3.7758,-0.360326 -5.59352,0.06476 -0.71061,0.156845 -1.37887,0.435052 -2.04356,0.724815 -0.85645,0.436039 -1.55484,1.09981 -2.1725,1.82431 -0.69628,0.798418 -1.13374,1.754188 -1.52914,2.725304 -0.26738,0.64698 -0.39573,1.331074 -0.51959,2.015741 -0.19918,0.89644 -0.27991,1.808835 -0.3339,2.72337 -0.0251,1.07841 -0.0353,2.157129 -0.0618,3.235653 -0.0138,0.512985 -0.0233,1.026059 -0.0272,1.539213 0.0185,0.452171 0.28227,0.823085 0.55942,1.160317 0.25755,0.306263 0.57173,0.562068 0.90052,0.787908 0.42945,0.321286 0.88651,0.602073 1.34216,0.883931 0.55974,0.359447 1.16668,0.623059 1.80516,0.803333 2.06833,0.385649 4.36126,0.191333 6.38804,0.183039 0.86705,-0.02058 1.7167,-0.116025 2.52067,-0.451845 0.64128,-0.351388 0.95842,-0.755841 1.27912,-1.395127 0.24958,-0.593815 0.3605,-1.244544 0.46773,-1.878457 0.0574,-0.819502 0.14484,-1.636329 0.19819,-2.456135 0.0569,-0.927139 0.0562,-1.856446 0.0688,-2.784864 0.0217,-0.77325 0.0106,-1.546706 0.008,-2.320081 0.008,-0.707228 0.003,-1.414515 0.009,-2.121746 5.3e-4,-0.836451 -0.022,-1.672558 -0.0226,-2.509047 -0.0159,-1.146545 -0.009,-2.293151 -0.01,-3.439755 0.001,-1.056105 0.005,-2.112129 0.0147,-3.168197 0.0158,-0.846133 0.003,-1.692252 0.002,-2.53841 -0.0103,-0.804847 0.004,-1.609757 0.0186,-2.414455 0.01,-0.486831 0.008,-0.973783 0.009,-1.46068 0.004,-0.427787 0.005,-0.855475 -2.6e-4,-1.283237 0.0467,-0.584468 0.10508,-1.167509 0.13424,-1.753257 0.10421,-0.877469 0.22661,-1.750343 0.27308,-2.633334 0.0653,-1.006917 0.08,-2.015713 0.093,-3.024323 0.0194,-0.743505 0.0104,-1.487242 0.0136,-2.230855 -0.008,-0.685413 -0.002,-1.37078 0.008,-2.056124 0.007,-0.422406 0.002,-0.844853 0.005,-1.2673 0,0 -3.93712,0 -3.93712,0 v 0 c 0.003,0.42248 -0.002,0.844963 0.005,1.2674 0.0104,0.685465 0.0162,1.37095 0.0102,2.0565 0.005,0.742627 -2.6e-4,1.485342 0.0129,2.227934 2.7e-4,1.000079 -0.008,2.000904 -0.0681,2.999447 -0.0794,0.885039 -0.20509,1.76167 -0.33529,2.639782 -0.0337,0.593098 -0.0914,1.18349 -0.15388,1.77413 -0.006,0.427762 -0.004,0.85545 -2.7e-4,1.283237 0.001,0.486897 -5.3e-4,0.973849 0.009,1.46068 0.0151,0.804698 0.0289,1.609608 0.0186,2.414455 -5.3e-4,0.846158 -0.0136,1.692277 0.002,2.53841 0.0102,1.056065 0.0135,2.112092 0.0147,3.168194 -10e-4,1.146604 0.006,2.293213 -0.01,3.439758 -5.3e-4,0.836512 -0.0231,1.672649 -0.0224,2.509126 0.006,0.7073 0.002,1.414661 0.0108,2.121951 -0.001,0.772427 -0.009,1.544859 0.005,2.317244 5.3e-4,0.920509 -0.0142,1.841532 -0.0709,2.760488 -0.0596,0.807344 -0.14225,1.613186 -0.23567,2.41699 -0.10152,0.593878 -0.19231,1.206119 -0.46125,1.75088 -0.29469,0.507325 -0.68204,0.907317 -1.24564,1.113925 -0.799,0.25441 -1.6301,0.312568 -2.4652,0.332811 6.60312,0.02622 2.82326,0.09794 1.31128,-0.109971 -0.62931,-0.121206 -1.22988,-0.338926 -1.77008,-0.690483 -0.45865,-0.25436 -0.89452,-0.54691 -1.32728,-0.842666 -0.77997,-0.623213 0.32083,0.238453 -0.35836,-0.242896 -0.18561,-0.131545 -0.33162,-0.321416 -0.52005,-0.450977 -0.22293,-0.268748 -0.52221,-0.518866 -0.55279,-0.888505 -0.006,-0.512585 -0.0191,-1.025025 -0.0318,-1.537483 -0.0216,-1.071229 -0.0281,-2.143056 0.0411,-3.212978 0.0565,-0.899885 0.15231,-1.797836 0.37484,-2.67398 0.12861,-0.655331 0.2546,-1.312532 0.48694,-1.941446 0.36654,-0.940253 0.81897,-1.840363 1.50586,-2.592517 0.62751,-0.6809 1.33209,-1.290283 2.19784,-1.648802 0.66153,-0.275016 1.3352,-0.522618 2.04714,-0.631753 1.46941,-0.151501 0.38985,-0.03001 -3.27673,-0.03832 -0.41797,-0.0011 1.59282,0.007 1.10852,0.01662 0.48794,0.02048 0.98507,0.02371 1.45458,0.17436 0.42918,0.06321 0.76889,0.277723 1.13459,0.501373 0.49901,0.333255 0.95232,0.720563 1.37773,1.142822 z" />
    <path
       style="fill:#00fbff;fill-opacity:1;stroke-width:17.465"
       id="path62-3"
       d="m 106.96461,52.781106 c -0.58566,-0.06796 -1.15287,-0.236776 -1.72615,-0.367959 -1.78778,-0.321633 -3.67983,-0.136657 -5.455008,-0.127156 -0.57826,0.13026 -1.12731,0.355703 -1.63201,0.667168 -0.62604,0.373613 -1.10939,0.88772 -1.56736,1.44567 -0.60799,0.624988 -0.9856,1.412484 -1.47077,2.124594 -0.30395,0.469225 -0.51783,0.981964 -0.68252,1.514194 -0.14322,0.530265 -0.17351,1.076542 -0.18672,1.622481 0.006,0.829342 0.0169,1.658538 0.008,2.487885 -0.0383,0.617196 0.15787,1.155009 0.44046,1.689632 0.26687,0.408527 0.54525,0.813138 0.84163,1.201338 0.3128,0.426968 0.76231,0.559808 1.26213,0.63125 0.81082,0.09325 1.62462,0.145532 2.43974,0.181219 1.858178,0.009 3.798428,0.44809 5.583808,-0.144645 0.57362,-0.213344 1.04994,-0.597329 1.53031,-0.964404 0.5317,-0.468413 1.03404,-0.972788 1.46988,-1.531532 0.35629,-0.590003 0.72465,-1.180235 1.01742,-1.805406 0.19226,-0.452967 0.264,-0.941014 0.36749,-1.418394 0.10791,-0.530093 0.16881,-1.066872 0.25489,-1.600459 0.0914,-0.519624 0.19876,-1.03455 0.26526,-1.558492 0.0449,-0.404616 0.0454,-0.809164 0.11675,-1.210177 0.0635,-0.407263 0.0951,-0.818118 0.11356,-1.229567 0.14682,-1.807371 -1.12228,-0.602395 -4.02048,-0.309541 -0.0157,0.0016 -0.071,0.254519 -0.10278,0.39193 -0.12304,0.533397 -0.21537,1.070758 -0.2765,1.614633 -0.0463,0.564684 -0.0581,1.131549 -0.0588,1.6979 0.005,0.593815 0.005,1.187559 -0.001,1.781355 -0.0126,0.463886 -0.0254,0.921581 0.0693,1.377394 0.0864,0.423135 0.22787,0.830186 0.37098,1.236581 0.14775,0.44918 0.37953,0.856244 0.61083,1.26574 0.35627,0.535988 0.62794,1.120947 0.96145,1.669738 0.23089,0.369392 0.56599,0.626038 0.95867,0.801507 0.32365,0.128977 0.64553,0.230857 0.99123,0.279678 0.37492,0.0173 0.74253,0.0626 1.11224,0.125264 0.26324,0.04672 0.53009,0.06303 0.79656,0.07783 0,0 3.90071,-0.602271 3.90071,-0.602271 v 0 c -0.26158,-0.0058 -0.52383,-0.0093 -0.78426,-0.03676 -0.37471,-0.04691 -0.73692,-0.160078 -1.11696,-0.144293 -0.33685,-0.01765 -0.67431,-0.02664 -0.97675,-0.195979 -0.373,-0.07256 -0.70513,-0.237681 -0.95552,-0.531453 -0.36369,-0.522356 -0.62245,-1.106054 -0.9712,-1.63875 -0.2098,-0.399867 -0.43641,-0.7859 -0.57783,-1.216898 -0.16318,-0.376669 -0.28202,-0.775671 -0.38232,-1.173448 -0.0957,-0.426792 -0.0654,-0.859216 -0.0749,-1.294437 -0.008,-0.592783 -0.0114,-1.185564 -0.003,-1.778376 0.006,-0.552685 0.004,-1.106527 0.0584,-1.657204 0.0564,-0.52261 0.15163,-1.037725 0.29677,-1.543521 0.0207,-0.05336 0.0354,-0.109416 0.062,-0.160092 0.0157,-0.02995 0.0973,-0.07941 0.0635,-0.07914 -3.49939,0.02802 -3.96816,1.420535 -3.90619,-0.202401 0.003,-0.0761 0.0121,0.412417 0.005,0.22842 -0.0155,0.395185 -0.0414,0.79075 -0.11461,1.180121 -0.0653,0.407731 -0.0633,0.817719 -0.10116,1.228466 -0.0606,0.51907 -0.17577,1.026845 -0.26004,1.541994 -0.0886,0.526153 -0.13624,1.058524 -0.25589,1.579208 -0.10094,0.448937 -0.18327,0.905484 -0.36372,1.331648 -0.2788,0.594551 -0.59912,1.178944 -0.9878,1.708264 -0.45052,0.514842 -0.91805,1.020355 -1.4627,1.438013 -0.47537,0.345988 -0.97058,0.675582 -1.55018,0.816332 -1.255738,0.279575 -3.572498,0.06403 3.17737,0.07667 0.0973,1.82e-4 -0.19448,-0.0013 -0.29172,-0.0024 -0.32977,-0.0039 -0.36889,-0.0057 -0.71114,-0.01323 -0.80151,-0.02471 -1.60458,-0.0538 -2.39986,-0.163721 -0.42265,-0.02088 -0.889648,-0.01172 -1.215698,-0.321556 -0.30726,-0.359283 -0.55437,-0.761738 -0.8432,-1.135716 -0.28113,-0.466836 -0.48542,-0.929841 -0.47803,-1.488379 -0.0112,-0.824857 -0.009,-1.650214 0.0237,-2.474606 0.0207,-0.508076 0.0469,-1.021265 0.19431,-1.511488 0.16949,-0.495117 0.36811,-0.975341 0.65533,-1.41597 0.43138,-0.723887 0.84237,-1.460691 1.439308,-2.067793 0.47131,-0.506976 0.97099,-0.97912 1.58839,-1.306811 0.51481,-0.249111 1.05158,-0.465881 1.63018,-0.494872 -6.837558,-0.01879 -3.862568,-0.09738 -2.33244,0.07318 0.57504,0.105265 1.13713,0.263173 1.70427,0.402342 z" />
    <path
       style="fill:#fbff00;fill-opacity:1;stroke-width:17.465"
       id="path67"
       d="m 48.915925,78.691533 c -0.902594,0.0088 -1.80526,0.0057 -2.707886,0.0052 -1.774219,0.02796 -3.907081,-0.318958 -5.656043,0.447074 -0.43707,0.191434 -0.574238,0.295691 -0.988218,0.548923 -0.940639,0.604028 -1.688076,1.428073 -2.381541,2.29294 -0.573815,0.68914 -0.923565,1.49364 -1.161788,2.348783 -0.153797,0.622054 -0.152922,1.262761 -0.163936,1.898894 -0.0045,0.585483 -0.0065,1.171718 0.02972,1.756246 0.03582,0.4924 0.07426,0.975481 0.27676,1.429991 0.178408,0.366331 0.457091,0.642755 0.780237,0.8822 0.396018,0.240689 0.834832,0.409186 1.268757,0.569447 0.768183,0.282151 1.58982,0.326358 2.399022,0.365313 2.021255,0.06947 4.0455,0.03947 6.067028,0.03985 0.56302,-0.20632 1.076999,-0.516261 1.568677,-0.85438 0.405876,-0.284162 0.681959,-0.694399 1.019241,-1.047443 0.261811,-0.287403 0.415402,-0.614137 0.503402,-0.988978 0.06015,-0.447778 0.06048,-0.901581 0.06557,-1.352719 0.04484,-0.473752 -0.06199,-0.884169 -0.28802,-1.296855 -0.301419,-0.448231 -0.727247,-0.746517 -1.225756,-0.934464 -0.365141,-0.114239 -0.732695,-0.211253 -1.112333,-0.260818 -0.228737,-0.05551 -0.460224,-0.09185 -0.693094,-0.124209 0,0 -3.890277,0.570373 -3.890277,0.570373 v 0 c 0.223017,0.02037 0.450873,0.02559 0.66685,0.09032 0.364514,0.106722 0.760056,0.0824 1.116103,0.235313 0.469458,0.08475 0.891439,0.267025 1.20727,0.63982 0.233979,0.332836 0.305659,0.672542 0.274187,1.078191 -1.82e-4,0.418465 0.0081,0.842422 -0.07615,1.254305 -0.09118,0.311176 -0.266697,0.565541 -0.486164,0.80342 -0.293349,0.35514 -0.600667,0.697391 -0.993082,0.947454 -0.467846,0.300109 -0.971687,0.609844 -1.54225,0.625499 7.08116,0.0024 3.26323,0.01789 1.644803,-0.01474 -0.778698,-0.02564 -1.571337,-0.04144 -2.325915,-0.255535 -0.421902,-0.147415 -0.826564,-0.327456 -1.244515,-0.481949 -0.30801,-0.168153 -0.576096,-0.380701 -0.7581,-0.685355 -0.254326,-0.370729 -0.236797,-0.831832 -0.300887,-1.262751 -0.04908,-0.572984 -0.0075,-1.149315 -0.02695,-1.72394 5.3e-4,-0.602112 0.01294,-1.208894 0.147289,-1.798775 0.213442,-0.806921 0.574593,-1.545585 1.115459,-2.188213 0.682268,-0.824576 1.411515,-1.609889 2.348182,-2.152636 0.477886,-0.25236 0.935951,-0.472282 1.461339,-0.608838 1.326653,-0.344819 3.655872,-0.192281 -2.482347,-0.183968 0.880904,-5.29e-4 1.761855,-0.0039 2.642722,0.0052 z" />
    <path
       style="fill:#fbff00;fill-opacity:1;stroke-width:17.465"
       id="path68"
       d="m 50.981964,82.511973 c 0.04039,0.789469 0.03466,1.580362 0.03729,2.370608 -0.0056,0.716836 -0.01206,1.433666 -0.02257,2.150449 -0.05599,0.405866 -0.120441,0.810406 -0.200657,1.212242 -0.09572,0.430392 -0.130799,0.868336 -0.149058,1.307605 -0.058,0.362871 -0.105442,0.722169 -0.212328,1.073779 -0.0847,0.186593 -0.04284,0.08964 -0.1249,0.291143 0,0 3.953632,0.152397 3.953632,0.152397 v 0 c 0.087,-0.215429 0.04448,-0.104148 0.126902,-0.334097 0.101309,-0.381786 0.149519,-0.774936 0.200872,-1.166014 0.01918,-0.418213 0.05688,-0.835861 0.145113,-1.245912 0.08787,-0.426101 0.173416,-0.854866 0.187664,-1.291143 -0.0105,-0.716783 -0.01693,-1.433613 -0.02257,-2.150449 0.0026,-0.790246 -0.0031,-1.581139 0.03729,-2.370608 z" />
    <path
       style="fill:#fbff00;fill-opacity:1;stroke-width:17.465"
       id="path69"
       d="m 54.278135,85.418442 c 0.07554,-0.474977 0.204028,-0.91831 0.483812,-1.311121 0.220707,-0.370182 0.571685,-0.626182 0.959342,-0.800508 0.350091,-0.128937 0.724384,-0.132606 1.092483,-0.13598 0.06527,1.75e-4 0.130532,2.65e-4 0.1958,5.29e-4 -0.135589,-5.29e-4 0.5481,0.0024 0.411072,0.0024 -6.411015,0.0029 -4.656399,-0.0057 -3.307445,0.0021 0.370314,-0.04036 0.639868,0.140745 0.905526,0.375259 0.258752,0.265641 0.454602,0.583279 0.675844,0.87917 0.153656,0.179123 0.292042,0.372425 0.416541,0.572786 0,0 3.959143,-0.19064 3.959143,-0.19064 v 0 c -0.109736,-0.242432 -0.273111,-0.449725 -0.429622,-0.663408 -0.269984,-0.264795 -0.434092,-0.618617 -0.685136,-0.900861 -0.250381,-0.296299 -0.55135,-0.597443 -0.940115,-0.688134 -1.703234,-0.0091 -3.407611,-0.0475 -5.109824,0.01188 -0.388644,0.03519 -0.770297,0.106579 -1.106958,0.317251 -0.393251,0.262723 -0.739008,0.573278 -0.968447,0.993987 -0.259572,0.445172 -0.378137,0.930627 -0.511066,1.425141 z" />
    <path
       style="fill:#fbff00;fill-opacity:1;stroke-width:17.465"
       id="path70"
       d="m 67.241753,84.676638 c -2.032604,-0.138335 -4.170837,-0.518912 -6.131298,0.122306 -0.70367,0.206896 -0.915102,0.498793 -1.204082,1.139563 -0.222126,0.612802 -0.254458,1.269434 -0.28035,1.914541 -0.03939,0.521697 -0.03129,1.024834 0.108998,1.529561 0.101568,0.389009 0.360849,0.589601 0.690456,0.774124 0.549559,0.234555 1.113666,0.440063 1.673141,0.651716 2.009335,0.739836 4.194918,0.67478 6.315318,0.433985 0.685512,-0.180411 1.191853,-0.753837 1.637387,-1.274048 0.533678,-0.622509 0.817433,-1.220324 0.97671,-2.01686 0.0944,-0.555546 0.09632,-1.120561 0.09844,-1.682329 0.01979,-0.467606 0.0096,-0.916991 -0.15562,-1.358445 -0.225639,-0.482796 -0.550931,-0.617276 -1.03863,-0.748507 -0.703709,-0.130611 -1.412848,-0.229576 -2.125368,-0.296362 -0.110877,-0.0083 -0.221753,-0.01651 -0.332629,-0.02477 0,0 -3.869174,0.58832 -3.869174,0.58832 v 0 c 0.112569,0.0056 0.225142,0.01116 0.337711,0.01675 0.703951,0.0471 1.400633,0.139215 2.096889,0.249182 0.350697,0.05337 0.750994,0.08073 0.986729,0.376692 0.194358,0.377132 0.16383,0.782193 0.164706,1.197578 0.0033,0.534694 0.0071,1.072714 -0.08021,1.60197 -0.148227,0.690674 -0.45307,1.291429 -0.941988,1.810314 -0.452368,0.470014 -0.946449,0.940276 -1.633418,0.975667 -1.376207,0.04492 -1.382004,0.04134 3.208956,0.03069 0.139999,-2.65e-4 -0.279746,-0.01434 -0.419049,-0.02829 C 66.851611,90.61253 66.391869,90.50344 65.944249,90.340322 65.5629,90.198 65.181344,90.053749 64.809401,89.887794 c -0.05624,-0.02508 -0.245623,-0.126436 -0.312677,-0.149587 -0.04308,-0.01487 -0.08893,-0.01998 -0.133403,-0.02997 -0.174259,-0.06486 -0.08842,-0.02543 -0.256823,-0.119845 -0.193153,-0.07513 -0.346715,-0.09128 -0.426937,-0.320069 -0.155871,-0.486453 -0.162049,-0.888175 -0.134278,-1.399567 0.02371,-0.591735 0.04452,-1.198777 0.286014,-1.749684 0.291219,-0.530598 0.574691,-0.656788 1.153083,-0.810228 1.322055,-0.273558 3.438237,-0.08176 -2.70438,-0.108953 -0.256124,-0.0011 0.512892,-7.94e-4 0.768104,0.02072 0.09295,0.0079 0.18574,0.01754 0.278612,0.0263 z" />
    <path
       style="fill:#fbff00;fill-opacity:1;stroke-width:17.465"
       id="path71"
       d="m 73.561214,83.582721 c -0.569759,0.791487 -1.103775,1.602729 -1.564735,2.462559 -0.389744,0.693462 -0.519943,1.458171 -0.574992,2.239504 -0.01897,0.681916 0.08546,1.330296 0.378282,1.945871 0.256998,0.50384 0.661342,0.807439 1.174906,1.015449 0.458484,0.153885 0.940644,0.190606 1.420379,0.205793 1.68411,0.01421 0.382426,0.0041 4.494972,0.0024 0.276622,-1.21e-4 0.45245,0.0053 0.732073,-0.03532 0.32775,-0.04767 0.650472,-0.125148 0.97609,-0.185709 0.640299,-0.197678 1.323578,-0.288319 1.919499,-0.612097 0.306499,-0.166529 0.389438,-0.258681 0.646544,-0.477438 0.488122,-0.469466 0.737322,-1.047456 0.914725,-1.686806 0.167159,-0.552366 0.321294,-1.109427 0.453366,-1.671296 0.08882,-0.455518 0.119912,-0.918758 0.135882,-1.38166 0.0097,-0.400788 0.0031,-0.801719 0.0031,-1.202592 6.6e-5,-0.06576 1.35e-4,-0.131527 2.01e-4,-0.197289 0,0 -3.949253,0.0011 -3.949253,0.0011 v 0 c 2.65e-4,0.06577 7.94e-4,0.131538 0.0011,0.197305 0.0021,0.396754 7.93e-4,0.793462 -0.0043,1.190189 -0.01011,0.436837 -0.02973,0.875538 -0.121962,1.30415 -0.124246,0.553569 -0.269552,1.103106 -0.430792,1.646949 -0.179385,0.559972 -0.432819,1.063323 -0.89462,1.447067 -0.7391,0.530336 -1.623875,0.722931 -2.503521,0.90374 -0.399447,0.06546 -0.59843,0.107693 -0.999525,0.136345 -0.133532,0.0095 -0.26761,0.0089 -0.401468,0.0109 -0.115263,0.0016 -0.461103,1.64e-4 -0.345826,1.8e-4 3.102665,5.29e-4 4.775213,-1.01e-4 3.263974,2.64e-4 -0.471784,9.3e-5 -0.94633,-0.0021 -1.411478,-0.09192 -0.514319,-0.114832 -0.842055,-0.265665 -1.148051,-0.708697 -0.30943,-0.534969 -0.421505,-1.109908 -0.392581,-1.72888 0.05225,-0.724498 0.177956,-1.43002 0.527664,-2.078111 0.450636,-0.852504 0.992912,-1.65521 1.640372,-2.372104 z" />
    <path
       style="fill:#fbff00;fill-opacity:1;stroke-width:17.465"
       id="path72"
       d="m 88.130985,83.434617 c 0.24698,1.189699 0.308623,2.407846 0.444743,3.613259 0.240935,1.953141 0.36911,3.917175 0.441801,5.883 0.03893,1.820701 0.116452,3.6401 0.18537,5.459949 0.02556,0.835271 0.01958,1.670885 0.01244,2.506335 0,0 3.817905,-0.006 3.817905,-0.006 v 0 c -0.03413,-0.83664 -0.0685,-1.673326 -0.08592,-2.510534 -0.03196,-1.822333 -0.114371,-3.643826 -0.157075,-5.466043 -0.09906,-1.970397 -0.276632,-3.933801 -0.452636,-5.898583 -0.06988,-1.209218 -0.127907,-2.420224 -0.255879,-3.624938 z" />
    <path
       style="fill:#fbff00;fill-opacity:1;stroke-width:17.465"
       id="path73"
       d="m 92.559562,83.708768 c 1.327174,-0.01461 2.654469,-0.01273 3.981707,-0.01418 2.482807,0.0037 -1.330675,-0.0039 -2.158818,0.01799 -0.237834,0.0063 0.475607,0.0205 0.712449,0.04312 0.581308,0.05549 1.113584,0.182621 1.665499,0.364128 0.502891,0.233029 1.115478,0.476594 1.409348,0.985977 0.05477,0.09495 0.08823,0.20069 0.13234,0.301033 0.23351,0.824013 -0.114499,1.543026 -0.499595,2.254536 -0.607049,0.984755 -1.330256,1.899192 -2.129049,2.735175 -0.455969,0.464785 -0.988314,0.767085 -1.603335,0.961559 -0.785545,0.156668 -1.590402,0.170921 -2.388635,0.184761 -0.364114,0.0027 -0.358124,0.0035 -0.709051,0.0028 -0.09895,-1.96e-4 -0.395801,-0.0013 -0.296849,-0.0013 3.40324,-0.0024 4.847619,0.0045 3.39249,-0.0021 0,0 -3.891899,0.614818 -3.891899,0.614818 v 0 c 1.785072,0.0061 3.570586,0.02484 5.355336,-0.01471 0.815504,-0.02874 1.647989,-0.0527 2.42961,-0.310089 0.615895,-0.265824 1.148903,-0.630973 1.582507,-1.15125 0.761353,-0.895776 1.497053,-1.821905 2.109673,-2.82707 0.48143,-0.875684 0.78485,-1.573945 0.55185,-2.58658 -0.0415,-0.129066 -0.0708,-0.262779 -0.12463,-0.387202 -0.26944,-0.62221 -0.90971,-0.945295 -1.48264,-1.231265 -0.788595,-0.314475 -1.603837,-0.507314 -2.458775,-0.520737 -1.976067,-0.03102 -3.515428,-0.02681 -5.326792,-0.0241 -1.386909,-0.0016 -2.773863,-1.54e-4 -4.160716,-0.01418 z" />
    <path
       style="fill:#ff0000;fill-opacity:1;stroke-width:17.465"
       id="path67-1"
       d="m 50.459357,75.863084 c -0.902594,0.0088 -1.80526,0.0057 -2.707886,0.0052 -1.774219,0.02796 -3.907081,-0.318958 -5.656043,0.447074 -0.43707,0.191434 -0.574238,0.295691 -0.988218,0.548923 -0.940639,0.604028 -1.688076,1.428073 -2.381541,2.29294 -0.573815,0.68914 -0.923565,1.49364 -1.161788,2.348783 -0.153797,0.622054 -0.152922,1.262761 -0.163936,1.898894 -0.0045,0.585483 -0.0065,1.171718 0.02972,1.756246 0.03582,0.4924 0.07426,0.975481 0.27676,1.429991 0.178408,0.366331 0.457091,0.642755 0.780237,0.8822 0.396018,0.240689 0.834832,0.409186 1.268757,0.569447 0.768183,0.282151 1.58982,0.326358 2.399022,0.365313 2.021255,0.06947 4.0455,0.03947 6.067028,0.03985 0.56302,-0.20632 1.076999,-0.516261 1.568677,-0.85438 0.405876,-0.284162 0.681959,-0.694399 1.019241,-1.047443 0.261811,-0.287403 0.415402,-0.614137 0.503402,-0.988978 0.06015,-0.447778 0.06048,-0.901581 0.06557,-1.352719 0.04484,-0.473752 -0.06199,-0.884169 -0.28802,-1.296855 -0.301419,-0.448231 -0.727247,-0.746517 -1.225756,-0.934464 -0.365141,-0.114239 -0.732695,-0.211253 -1.112333,-0.260818 -0.228737,-0.05551 -0.460224,-0.09185 -0.693094,-0.124209 0,0 -3.890277,0.570373 -3.890277,0.570373 v 0 c 0.223017,0.02037 0.450873,0.02559 0.66685,0.09032 0.364514,0.106722 0.760056,0.0824 1.116103,0.235313 0.469458,0.08475 0.891439,0.267025 1.20727,0.63982 0.233979,0.332836 0.305659,0.672542 0.274187,1.078191 -1.82e-4,0.418465 0.0081,0.842422 -0.07615,1.254305 -0.09118,0.311176 -0.266697,0.565541 -0.486164,0.80342 -0.293349,0.35514 -0.600667,0.697391 -0.993082,0.947454 -0.467846,0.300109 -0.971687,0.609844 -1.54225,0.625499 7.08116,0.0024 3.26323,0.01789 1.644803,-0.01474 -0.778698,-0.02564 -1.571337,-0.04144 -2.325915,-0.255535 -0.421902,-0.147415 -0.826564,-0.327456 -1.244515,-0.481949 -0.30801,-0.168153 -0.576096,-0.380701 -0.7581,-0.685355 -0.254326,-0.370729 -0.236797,-0.831832 -0.300887,-1.262751 -0.04908,-0.572984 -0.0075,-1.149315 -0.02695,-1.72394 5.3e-4,-0.602112 0.01294,-1.208894 0.147289,-1.798775 0.213442,-0.806921 0.574593,-1.545585 1.115459,-2.188213 0.682268,-0.824576 1.411515,-1.609889 2.348182,-2.152636 0.477886,-0.25236 0.935951,-0.472282 1.461339,-0.608838 1.326653,-0.344819 3.655872,-0.192281 -2.482347,-0.183968 0.880904,-5.29e-4 1.761855,-0.0039 2.642722,0.0052 z" />
    <path
       style="fill:#ff0000;fill-opacity:1;stroke-width:17.465"
       id="path68-1"
       d="m 52.525396,79.683524 c 0.04039,0.789469 0.03466,1.580362 0.03729,2.370608 -0.0056,0.716836 -0.01206,1.433666 -0.02257,2.150449 -0.05599,0.405866 -0.120441,0.810406 -0.200657,1.212242 -0.09572,0.430392 -0.130799,0.868336 -0.149058,1.307605 -0.058,0.362871 -0.105442,0.722169 -0.212328,1.073779 -0.0847,0.186593 -0.04284,0.08964 -0.1249,0.291143 0,0 3.953632,0.152397 3.953632,0.152397 v 0 c 0.087,-0.215429 0.04448,-0.104148 0.126902,-0.334097 0.101309,-0.381786 0.149519,-0.774936 0.200872,-1.166014 0.01918,-0.418213 0.05688,-0.835861 0.145113,-1.245912 0.08787,-0.426101 0.173416,-0.854866 0.187664,-1.291143 -0.0105,-0.716783 -0.01693,-1.433613 -0.02257,-2.150449 0.0026,-0.790246 -0.0031,-1.581139 0.03729,-2.370608 z" />
    <path
       style="fill:#ff0000;fill-opacity:1;stroke-width:17.465"
       id="path69-7"
       d="m 55.821567,82.589993 c 0.07554,-0.474977 0.204028,-0.91831 0.483812,-1.311121 0.220707,-0.370182 0.571685,-0.626182 0.959342,-0.800508 0.350091,-0.128937 0.724384,-0.132606 1.092483,-0.13598 0.06527,1.75e-4 0.130532,2.65e-4 0.1958,5.29e-4 -0.135589,-5.29e-4 0.5481,0.0024 0.411072,0.0024 -6.411015,0.0029 -4.656399,-0.0057 -3.307445,0.0021 0.370314,-0.04036 0.639868,0.140745 0.905526,0.375259 0.258752,0.265641 0.454602,0.583279 0.675844,0.87917 0.153656,0.179123 0.292042,0.372425 0.416541,0.572786 0,0 3.959143,-0.19064 3.959143,-0.19064 v 0 c -0.109736,-0.242432 -0.273111,-0.449725 -0.429622,-0.663408 -0.269984,-0.264795 -0.434092,-0.618617 -0.685136,-0.900861 -0.250381,-0.296299 -0.55135,-0.597443 -0.940115,-0.688134 -1.703234,-0.0091 -3.407611,-0.0475 -5.109824,0.01188 -0.388644,0.03519 -0.770297,0.106579 -1.106958,0.317251 -0.393251,0.262723 -0.739008,0.573278 -0.968447,0.993987 -0.259572,0.445172 -0.378137,0.930627 -0.511066,1.425141 z" />
    <path
       style="fill:#ff0000;fill-opacity:1;stroke-width:17.465"
       id="path70-5"
       d="m 68.785185,81.848189 c -2.032604,-0.138335 -4.170837,-0.518912 -6.131298,0.122306 -0.70367,0.206896 -0.915102,0.498793 -1.204082,1.139563 -0.222126,0.612802 -0.254458,1.269434 -0.28035,1.914541 -0.03939,0.521697 -0.03129,1.024834 0.108998,1.529561 0.101568,0.389009 0.360849,0.589601 0.690456,0.774124 0.549559,0.234555 1.113666,0.440063 1.673141,0.651716 2.009335,0.739836 4.194918,0.67478 6.315318,0.433985 0.685512,-0.180411 1.191853,-0.753837 1.637387,-1.274048 0.533678,-0.622509 0.817433,-1.220324 0.97671,-2.01686 0.0944,-0.555546 0.09632,-1.120561 0.09844,-1.682329 0.01979,-0.467606 0.0096,-0.916991 -0.15562,-1.358445 -0.225639,-0.482796 -0.550931,-0.617276 -1.03863,-0.748507 -0.703709,-0.130611 -1.412848,-0.229576 -2.125368,-0.296362 -0.110877,-0.0083 -0.221753,-0.01651 -0.332629,-0.02477 0,0 -3.869174,0.58832 -3.869174,0.58832 v 0 c 0.112569,0.0056 0.225142,0.01116 0.337711,0.01675 0.703951,0.0471 1.400633,0.139215 2.096889,0.249182 0.350697,0.05337 0.750994,0.08073 0.986729,0.376692 0.194358,0.377132 0.16383,0.782193 0.164706,1.197578 0.0033,0.534694 0.0071,1.072714 -0.08021,1.60197 -0.148227,0.690674 -0.45307,1.291429 -0.941988,1.810314 -0.452368,0.470014 -0.946449,0.940276 -1.633418,0.975667 -1.376207,0.04492 -1.382004,0.04134 3.208956,0.03069 0.139999,-2.65e-4 -0.279746,-0.01434 -0.419049,-0.02829 -0.473767,-0.04746 -0.933509,-0.156546 -1.381129,-0.319664 -0.381349,-0.142322 -0.762905,-0.286573 -1.134848,-0.452528 -0.05624,-0.02508 -0.245623,-0.126436 -0.312677,-0.149587 -0.04308,-0.01487 -0.08893,-0.01998 -0.133403,-0.02997 -0.174259,-0.06486 -0.08842,-0.02543 -0.256823,-0.119845 -0.193153,-0.07513 -0.346715,-0.09128 -0.426937,-0.320069 -0.155871,-0.486453 -0.162049,-0.888175 -0.134278,-1.399567 0.02371,-0.591735 0.04452,-1.198777 0.286014,-1.749684 0.291219,-0.530598 0.574691,-0.656788 1.153083,-0.810228 1.322055,-0.273558 3.438237,-0.08176 -2.70438,-0.108953 -0.256124,-0.0011 0.512892,-7.94e-4 0.768104,0.02072 0.09295,0.0079 0.18574,0.01754 0.278612,0.0263 z" />
    <path
       style="fill:#ff0000;fill-opacity:1;stroke-width:17.465"
       id="path71-4"
       d="m 75.104646,80.754272 c -0.569759,0.791487 -1.103775,1.602729 -1.564735,2.462559 -0.389744,0.693462 -0.519943,1.458171 -0.574992,2.239504 -0.01897,0.681916 0.08546,1.330296 0.378282,1.945871 0.256998,0.50384 0.661342,0.807439 1.174906,1.015449 0.458484,0.153885 0.940644,0.190606 1.420379,0.205793 1.68411,0.01421 0.382426,0.0041 4.494972,0.0024 0.276622,-1.21e-4 0.45245,0.0053 0.732073,-0.03532 0.32775,-0.04767 0.650472,-0.125148 0.97609,-0.185709 0.640299,-0.197678 1.323578,-0.288319 1.919499,-0.612097 0.306499,-0.166529 0.389438,-0.258681 0.646544,-0.477438 0.488122,-0.469466 0.737322,-1.047456 0.914725,-1.686806 0.167159,-0.552366 0.321294,-1.109427 0.453366,-1.671296 0.08882,-0.455518 0.119912,-0.918758 0.135882,-1.38166 0.0097,-0.400788 0.0031,-0.801719 0.0031,-1.202592 6.6e-5,-0.06576 1.35e-4,-0.131527 2.01e-4,-0.197289 0,0 -3.949253,0.0011 -3.949253,0.0011 v 0 c 2.65e-4,0.06577 7.94e-4,0.131538 0.0011,0.197305 0.0021,0.396754 7.93e-4,0.793462 -0.0043,1.190189 -0.01011,0.436837 -0.02973,0.875538 -0.121962,1.30415 -0.124246,0.553569 -0.269552,1.103106 -0.430792,1.646949 -0.179385,0.559972 -0.432819,1.063323 -0.89462,1.447067 -0.7391,0.530336 -1.623875,0.722931 -2.503521,0.90374 -0.399447,0.06546 -0.59843,0.107693 -0.999525,0.136345 -0.133532,0.0095 -0.26761,0.0089 -0.401468,0.0109 -0.115263,0.0016 -0.461103,1.64e-4 -0.345826,1.8e-4 3.102665,5.29e-4 4.775213,-1.01e-4 3.263974,2.64e-4 -0.471784,9.3e-5 -0.94633,-0.0021 -1.411478,-0.09192 -0.514319,-0.114832 -0.842055,-0.265665 -1.148051,-0.708697 -0.30943,-0.534969 -0.421505,-1.109908 -0.392581,-1.72888 0.05225,-0.724498 0.177956,-1.43002 0.527664,-2.078111 0.450636,-0.852504 0.992912,-1.65521 1.640372,-2.372104 z" />
    <path
       style="fill:#ff0000;fill-opacity:1;stroke-width:17.465"
       id="path73-6"
       d="m 94.102994,80.880319 c 1.327174,-0.01461 2.654469,-0.01273 3.981707,-0.01418 2.482799,0.0037 -1.330675,-0.0039 -2.158818,0.01799 -0.237834,0.0063 0.475607,0.0205 0.712449,0.04312 0.581308,0.05549 1.113584,0.182621 1.665499,0.364128 0.502894,0.233029 1.115474,0.476594 1.409344,0.985977 0.0548,0.09495 0.0882,0.20069 0.13234,0.301033 0.233505,0.824013 -0.1145,1.543026 -0.49959,2.254536 -0.60705,0.984755 -1.330257,1.899192 -2.12905,2.735175 -0.455969,0.464785 -0.988314,0.767085 -1.603335,0.961559 -0.785545,0.156668 -1.590402,0.170921 -2.388635,0.184761 -0.364114,0.0027 -0.358124,0.0035 -0.709051,0.0028 -0.09895,-1.96e-4 -0.395801,-0.0013 -0.296849,-0.0013 3.40324,-0.0024 4.847619,0.0045 3.39249,-0.0021 0,0 -3.891899,0.614818 -3.891899,0.614818 v 0 c 1.785072,0.0061 3.570586,0.02484 5.355336,-0.01471 0.815504,-0.02874 1.647989,-0.0527 2.429613,-0.310089 0.615885,-0.265824 1.148895,-0.630973 1.582495,-1.15125 0.76136,-0.895776 1.49706,-1.821905 2.10968,-2.82707 0.48143,-0.875684 0.78485,-1.573945 0.55185,-2.58658 -0.0415,-0.129066 -0.0708,-0.262779 -0.12463,-0.387202 -0.26944,-0.62221 -0.90971,-0.945295 -1.48264,-1.231265 -0.7886,-0.314475 -1.60384,-0.507314 -2.458775,-0.520737 -1.976065,-0.03102 -3.515426,-0.02681 -5.32679,-0.0241 -1.386909,-0.0016 -2.773863,-1.54e-4 -4.160716,-0.01418 z" />
    <path
       style="fill:#ff0000;fill-opacity:1;stroke-width:17.465"
       id="path74"
       d="m 89.693199,80.773539 c 0.02814,0.580948 0.01513,1.162992 0.0081,1.744329 -0.01947,0.530968 0.09146,1.051332 0.230243,1.560311 0.146362,0.413113 0.203853,0.846111 0.287956,1.273406 0.111514,0.480134 0.150371,0.970856 0.170874,1.461936 0.01336,0.431335 0.01026,0.862933 0.0083,1.2944 -0.01471,0.348014 0.02381,0.699916 -0.02392,1.045525 -0.09732,0.427567 -0.106219,0.864563 -0.137094,1.299721 -0.105354,1.43075 -0.156718,2.863725 -0.209687,4.297296 -0.03122,1.997435 -0.200814,3.98794 -0.321104,5.980917 -0.03419,0.72135 -0.07397,1.44241 -0.11271,2.16352 0,0 3.843973,0.0111 3.843973,0.0111 v 0 c 0.0028,-0.71859 0.0072,-1.43732 0.04188,-2.15528 0.08408,-1.996427 0.204131,-3.991017 0.315587,-5.986042 0.05496,-1.429207 0.156705,-2.854915 0.357465,-4.271872 0.05641,-0.430983 0.09385,-0.864293 0.175969,-1.291696 0.03923,-0.363056 0.01611,-0.728694 0.02096,-1.093451 -0.0026,-0.437447 -0.0083,-0.874954 -0.02873,-1.311995 -0.02503,-0.509008 -0.04492,-1.020855 -0.157269,-1.51997 -0.08466,-0.439434 -0.143737,-0.884608 -0.301516,-1.30692 -0.141203,-0.47039 -0.240393,-0.957369 -0.226219,-1.450885 -0.007,-0.581338 -0.01998,-1.163381 0.0081,-1.74433 z" />
  </g>
</svg>
